<?xml version="1.0" encoding="utf-8"?>
<!-- Generator: Adobe Illustrator 24.2.3, SVG Export Plug-In . SVG Version: 6.00 Build 0)  -->
<svg version="1.1" id="Layer_1" xmlns="http://www.w3.org/2000/svg" xmlns:xlink="http://www.w3.org/1999/xlink" x="0px" y="0px"
	 viewBox="0 0 576 512" style="enable-background:new 0 0 576 512;" xml:space="preserve">
<style type="text/css">
	.st0{font-family:'SnapITC-Regular';}
	.st1{font-size:24px;}
</style>
<path d="M91.3,214.1c-1.3,0-2.3,0.7-2.3,1.6c0,0.9,1,1.6,2.3,1.6h5l5.8,21.6c0.2,0.8,1.2,1.3,2.3,1.3h31.5c1.3,0,2.3-0.7,2.3-1.6
	c0-0.9-1-1.6-2.3-1.6h-29.6l-0.9-3.3h30.4c1.4,0,2.6-0.6,3-1.6L144,219c0.5-1.4-0.9-2.8-3-2.8h-40.3l-0.2-0.9
	c-0.2-0.8-1.2-1.3-2.3-1.3H91.3z M105.9,249c2.5,0,4.6-1.5,4.6-3.3c0-1.8-2.1-3.3-4.6-3.3s-4.6,1.5-4.6,3.3
	C101.3,247.5,103.3,249,105.9,249z M138.1,245.7c0-1.8-2.1-3.3-4.6-3.3c-2.5,0-4.6,1.5-4.6,3.3c0,1.8,2.1,3.3,4.6,3.3
	C136.1,249,138.1,247.5,138.1,245.7z"/>
<text transform="matrix(0.9218 0 0 1 158.4072 236.2399)" class="st0 st1">Hat Bazar</text>
</svg>
