<?xml version="1.0" encoding="iso-8859-1"?>
<!-- Generator: Adobe Illustrator 19.0.0, SVG Export Plug-In . SVG Version: 6.00 Build 0)  -->
<svg version="1.1" id="Layer_1" xmlns="http://www.w3.org/2000/svg" xmlns:xlink="http://www.w3.org/1999/xlink" x="0px" y="0px"
	 viewBox="0 0 512 512" style="enable-background:new 0 0 512 512;" xml:space="preserve">
<path style="fill:#5A8BB0;" d="M462.049,512H49.951V274.732h412.098V512z"/>
<path style="fill:#3C5D76;" d="M462.049,512H256V274.732h206.049V512z"/>
<path style="fill:#78B9EB;" d="M462.049,512H49.951V399.61h412.098V512z"/>
<path style="fill:#5A8BB0;" d="M462.049,512H256V399.61h206.049V512z"/>
<path style="fill:#C9E3F7;" d="M390.89,512H134.24l58.033-374.647c-37.28-0.688-67.395-31.229-67.395-68.67
	C124.878,30.811,155.689,0,193.561,0h124.878c37.872,0,68.683,30.811,68.683,68.683c0,36.737-28.992,66.83-65.297,68.601L390.89,512
	z M177.954,474.537H345.89L276.84,99.902h41.599c17.214,0,31.22-14.005,31.22-31.22s-14.005-31.22-31.22-31.22H193.561
	c-17.214,0-31.22,14.005-31.22,31.22s14.005,31.22,31.22,31.22h42.425L177.954,474.537z"/>
<path style="fill:#AED5F3;" d="M256,37.463h62.439c17.214,0,31.22,14.005,31.22,31.22s-14.005,31.22-31.22,31.22H276.84
	l69.05,374.634H256V512h134.89l-69.065-374.717c36.306-1.771,65.297-31.864,65.297-68.6C387.122,30.811,356.311,0,318.439,0H256
	V37.463z"/>
<g>
</g>
<g>
</g>
<g>
</g>
<g>
</g>
<g>
</g>
<g>
</g>
<g>
</g>
<g>
</g>
<g>
</g>
<g>
</g>
<g>
</g>
<g>
</g>
<g>
</g>
<g>
</g>
<g>
</g>
</svg>
